<svg xmlns="http://www.w3.org/2000/svg" width="980" height="250" viewBox="0 0 980 250">
  <defs>
    <linearGradient id="bg2" x1="0" y1="0" x2="1" y2="1">
      <stop offset="0" stop-color="#0b0e17"/><stop offset="1" stop-color="#131828"/>
    </linearGradient>
    <marker id="arr2" markerWidth="10" markerHeight="10" refX="8" refY="3" orient="auto">
      <path d="M0,0 L8,3 L0,6 Z" fill="#a78bfa"/>
    </marker>
  </defs>
  <rect width="980" height="250" rx="14" fill="url(#bg2)"/>
  <text x="490" y="32" text-anchor="middle" fill="#e8ecf8" font-family="sans-serif" font-size="19" font-weight="bold">The Guardian — ERE 5-Gate Pipeline</text>
  <text x="490" y="54" text-anchor="middle" fill="#8b98b8" font-family="sans-serif" font-size="12">no deliverable commits unless every gate passes</text>
  <g font-family="sans-serif">
    <rect x="14" y="88" width="172" height="96" rx="10" fill="#141a2e" stroke="#22d3ee" stroke-width="1.5"/>
    <text x="100" y="114" text-anchor="middle" fill="#22d3ee" font-size="13" font-weight="bold">P1 · verify</text>
    <text x="100" y="136" text-anchor="middle" fill="#8b98b8" font-size="11">prompt coherence</text>
    <text x="100" y="154" text-anchor="middle" fill="#8b98b8" font-size="11">MetaSum check</text>
    <rect x="206" y="88" width="172" height="96" rx="10" fill="#141a2e" stroke="#22d3ee" stroke-width="1.5"/>
    <text x="292" y="114" text-anchor="middle" fill="#22d3ee" font-size="13" font-weight="bold">P2 · verify</text>
    <text x="292" y="136" text-anchor="middle" fill="#8b98b8" font-size="11">response + Dream</text>
    <text x="292" y="154" text-anchor="middle" fill="#8b98b8" font-size="11">Cycle recovery</text>
    <rect x="398" y="88" width="172" height="96" rx="10" fill="#141a2e" stroke="#f472b6" stroke-width="1.5"/>
    <text x="484" y="114" text-anchor="middle" fill="#f472b6" font-size="13" font-weight="bold">P3 · curate</text>
    <text x="484" y="136" text-anchor="middle" fill="#8b98b8" font-size="11">joint prompt+code</text>
    <text x="484" y="154" text-anchor="middle" fill="#8b98b8" font-size="11">coherence proof</text>
    <rect x="590" y="88" width="172" height="96" rx="10" fill="#141a2e" stroke="#fbbf24" stroke-width="1.5"/>
    <text x="676" y="114" text-anchor="middle" fill="#fbbf24" font-size="13" font-weight="bold">P4 · prove</text>
    <text x="676" y="136" text-anchor="middle" fill="#8b98b8" font-size="11">joint entropy</text>
    <text x="676" y="154" text-anchor="middle" fill="#8b98b8" font-size="11">&#8804; 0.20</text>
    <rect x="782" y="88" width="184" height="96" rx="10" fill="#1a1430" stroke="#a78bfa" stroke-width="2"/>
    <text x="874" y="114" text-anchor="middle" fill="#a78bfa" font-size="13" font-weight="bold">P5 · seal</text>
    <text x="874" y="136" text-anchor="middle" fill="#8b98b8" font-size="11">SHA-256 WORM</text>
    <text x="874" y="154" text-anchor="middle" fill="#8b98b8" font-size="11">append-only log</text>
    <line x1="186" y1="136" x2="202" y2="136" stroke="#a78bfa" stroke-width="2" marker-end="url(#arr2)"/>
    <line x1="378" y1="136" x2="394" y2="136" stroke="#a78bfa" stroke-width="2" marker-end="url(#arr2)"/>
    <line x1="570" y1="136" x2="586" y2="136" stroke="#a78bfa" stroke-width="2" marker-end="url(#arr2)"/>
    <line x1="762" y1="136" x2="778" y2="136" stroke="#a78bfa" stroke-width="2" marker-end="url(#arr2)"/>
  </g>
  <text x="490" y="218" text-anchor="middle" fill="#5b6b8c" font-family="sans-serif" font-size="11">the gates judge coherence, not correctness — the real toolchain is the only judge of the code</text>
</svg>
